<svg width="24" height="25" viewBox="0 0 24 25" fill="none" xmlns="http://www.w3.org/2000/svg">
<path fill-rule="evenodd" clip-rule="evenodd" d="M9.05219 17.5H14.9449L15.2069 18.0996C15.3948 18.5297 15.4985 19.0041 15.4985 19.5C15.4985 21.433 13.9315 23 11.9985 23C10.0655 23 8.49854 21.433 8.49854 19.5C8.49854 19.0041 8.60228 18.5297 8.7902 18.0996L9.05219 17.5ZM10.4985 19.5C10.4985 20.3284 11.1701 21 11.9985 21C12.827 21 13.4985 20.3284 13.4985 19.5H10.4985Z" fill="#1E212C"/>
<path fill-rule="evenodd" clip-rule="evenodd" d="M12.0006 4.5C9.05568 4.5 6.50062 7.36502 6.50062 10.5V13.8333C6.50062 15.1973 5.85845 16.4816 4.76729 17.3C4.74631 17.3157 4.73678 17.3278 4.7326 17.334C4.72823 17.3404 4.72561 17.3462 4.72382 17.3526C4.71984 17.3668 4.71805 17.3925 4.72855 17.424C4.73904 17.4555 4.7559 17.475 4.7676 17.484C4.77287 17.488 4.7785 17.4912 4.78583 17.4936C4.79284 17.496 4.80773 17.5 4.83395 17.5H19.1673C19.1935 17.5 19.2084 17.496 19.2154 17.4936C19.2227 17.4912 19.2284 17.488 19.2336 17.484C19.2453 17.475 19.2622 17.4555 19.2727 17.424C19.2832 17.3925 19.2814 17.3668 19.2774 17.3526C19.2756 17.3462 19.273 17.3404 19.2686 17.334C19.2645 17.3278 19.2549 17.3157 19.234 17.3C18.1428 16.4816 17.5006 15.1973 17.5006 13.8333V10.5C17.5006 7.36502 14.9456 4.5 12.0006 4.5ZM4.50062 10.5C4.50062 6.45527 7.76587 2.5 12.0006 2.5C16.2354 2.5 19.5006 6.45527 19.5006 10.5V13.8333C19.5006 14.5678 19.8464 15.2593 20.434 15.7C22.057 16.9173 21.1961 19.5 19.1673 19.5H4.83395C2.80515 19.5 1.94425 16.9173 3.56729 15.7C4.15484 15.2593 4.50062 14.5678 4.50062 13.8333V10.5Z" fill="#1E212C"/>
</svg>
