<svg width="24" height="24" viewBox="0 0 24 24" fill="none" xmlns="http://www.w3.org/2000/svg">
<path fill-rule="evenodd" clip-rule="evenodd" d="M8.21776 18.959C8.74757 19.115 9.30349 18.8119 9.45944 18.2821L10.1859 15.8142C11.3895 16.0615 12.611 16.0615 13.8147 15.8143L14.5408 18.282C14.6967 18.8118 15.2526 19.115 15.7824 18.9591C16.3122 18.8032 16.6154 18.2473 16.4595 17.7175L15.7209 15.2074C16.7093 14.7775 17.6626 14.1765 18.5643 13.413L20.261 15.2748C20.633 15.683 21.2655 15.7123 21.6737 15.3403C22.0819 14.9683 22.1112 14.3358 21.7392 13.9276L19.9958 12.0146C20.6512 11.2825 21.2709 10.4533 21.8481 9.52974C22.1408 9.0614 21.9985 8.44445 21.5301 8.15174C21.0618 7.85903 20.4448 8.00141 20.1521 8.46974C19.4568 9.58221 18.7082 10.5192 17.928 11.2869C16.731 12.4644 15.4632 13.2404 14.1935 13.6493C12.7435 14.1164 11.2572 14.1164 9.80713 13.6493C8.53747 13.2404 7.26954 12.4644 6.0726 11.2869C5.29219 10.5191 4.54341 9.58218 3.84813 8.46974C3.55542 8.0014 2.93847 7.85903 2.47013 8.15174C2.0018 8.44445 1.85943 9.0614 2.15214 9.52974C2.72945 10.4534 3.34927 11.2825 4.00467 12.0146L2.26107 13.9275C1.88903 14.3357 1.91832 14.9682 2.32649 15.3402C2.73467 15.7123 3.36715 15.683 3.73919 15.2748L5.43627 13.4129C6.33794 14.1764 7.29125 14.7774 8.27966 15.2074L7.54083 17.7174C7.38488 18.2472 7.68795 18.8031 8.21776 18.959Z" fill="#1E212C"/>
</svg>
