<svg width="24" height="24" viewBox="0 0 24 24" fill="none" xmlns="http://www.w3.org/2000/svg">
<path fill-rule="evenodd" clip-rule="evenodd" d="M9.84847 20.75C9.988 20.75 10.1173 20.6758 10.1879 20.5549L10.194 20.5444L14.7803 13.1092L14.7803 3.25L6.19446 3.25C6.01023 3.25 5.8509 3.37789 5.81098 3.5575L5.80751 3.5731L3.25754 13.5327C3.21082 13.7741 3.39583 14 3.64329 14L7.53027 14C8.18145 14 8.84037 14.2176 9.32008 14.6858C9.8244 15.178 10.0582 15.8829 9.90816 16.6424L9.18931 20.281C9.14132 20.5239 9.32723 20.75 9.57465 20.75L9.84847 20.75ZM16.7803 3.25L16.7803 12.3929L20.3237 12.3929C20.5394 12.3929 20.7149 12.2188 20.7166 12.0029C20.7166 12.0029 20.7166 12.0029 20.7166 12.0029L20.7803 3.64578C20.7819 3.42784 20.6056 3.25 20.3875 3.25L16.7803 3.25ZM16.3384 14.3929L11.9082 21.575C11.4779 22.3027 10.695 22.75 9.84847 22.75L9.57465 22.75C8.06694 22.75 6.93502 21.3724 7.22723 19.8933L7.94609 16.2548C7.95888 16.19 7.95058 16.1606 7.94859 16.1541C7.94637 16.1469 7.94149 16.135 7.92313 16.117C7.88131 16.0762 7.75675 16 7.53027 16L3.64329 16C2.11231 16 0.975367 14.5821 1.30744 13.0879L1.31091 13.0723L3.86261 3.10592C4.11243 2.02032 5.07913 1.25 6.19446 1.25L20.3875 1.25C21.716 1.25 22.7904 2.33243 22.7802 3.66102C22.7802 3.66104 22.7802 3.66099 22.7802 3.66102L22.7165 12.0182C22.7065 13.3324 21.6382 14.3929 20.3237 14.3929L16.3384 14.3929Z" fill="#1E212C"/>
</svg>
