<svg width="24" height="24" viewBox="0 0 24 24" fill="none" xmlns="http://www.w3.org/2000/svg">
<path fill-rule="evenodd" clip-rule="evenodd" d="M20.7501 17.7504V9.00042C20.7501 8.44814 21.1978 8.00042 21.7501 8.00042C22.3024 8.00042 22.7501 8.44814 22.7501 9.00042V17.7504C22.7501 20.5118 20.5115 22.7504 17.7501 22.7504H6.25009C3.48867 22.7504 1.25009 20.5118 1.25009 17.7504L1.25009 9.00044C1.25009 8.44816 1.69781 8.00044 2.25009 8.00044C2.80237 8.00044 3.25009 8.44816 3.25009 9.00044L3.25009 17.7504C3.25009 19.4073 4.59324 20.7504 6.25009 20.7504H17.7501C19.4069 20.7504 20.7501 19.4073 20.7501 17.7504Z" fill="#1E212C"/>
<path fill-rule="evenodd" clip-rule="evenodd" d="M1.4427 9.21544C1.76856 9.66135 2.3942 9.75867 2.84011 9.43282L11.4101 3.17015C11.7615 2.91334 12.2387 2.91334 12.5901 3.17015L21.1601 9.43282C21.606 9.75867 22.2316 9.66135 22.5575 9.21544C22.8833 8.76953 22.786 8.14389 22.3401 7.81803L13.7701 1.55537C12.7159 0.78493 11.2843 0.78493 10.23 1.55537L1.66007 7.81803C1.21416 8.14389 1.11684 8.76953 1.4427 9.21544Z" fill="#1E212C"/>
<path fill-rule="evenodd" clip-rule="evenodd" d="M1.4279 8.05621C1.74226 7.60213 2.36522 7.48887 2.8193 7.80323L10.2925 12.977C11.3198 13.6882 12.6804 13.6882 13.7077 12.977L21.1809 7.80323C21.635 7.48887 22.2579 7.60213 22.5723 8.05621C22.8866 8.5103 22.7734 9.13325 22.3193 9.44762L14.8461 14.6213C13.1339 15.8067 10.8663 15.8067 9.15404 14.6213L1.68088 9.44762C1.2268 9.13325 1.11353 8.5103 1.4279 8.05621Z" fill="#1E212C"/>
</svg>
