<svg width="24" height="24" viewBox="0 0 24 24" fill="none" xmlns="http://www.w3.org/2000/svg">
<path fill-rule="evenodd" clip-rule="evenodd" d="M18.7647 19.7597V15.808C18.7647 15.27 19.2008 14.8339 19.7388 14.8339C20.2768 14.8339 20.7129 15.27 20.7129 15.808V19.7597C20.7129 22.1015 18.8147 23.9999 16.473 23.9999L4.23987 23.9999C1.89826 23.9999 -1.02355e-07 22.1015 0 19.7597L5.34728e-07 7.52565C6.37083e-07 5.18386 1.89826 3.28547 4.23988 3.28547L8.19129 3.28549C8.72927 3.28549 9.16538 3.72163 9.16538 4.25965C9.16538 4.79766 8.72926 5.23381 8.19129 5.23381L4.23988 5.23379C2.97421 5.23379 1.94818 6.25989 1.94818 7.52565L1.94818 19.7597C1.94818 21.0255 2.9742 22.0516 4.23987 22.0516H16.473C17.7387 22.0516 18.7647 21.0255 18.7647 19.7597Z" fill="#1E212C"/>
<path fill-rule="evenodd" clip-rule="evenodd" d="M20.4291 3.57075C20.8095 3.95118 20.8095 4.56798 20.4291 4.94842L9.6033 15.775C9.2229 16.1554 8.60614 16.1554 8.22573 15.775C7.84533 15.3946 7.84533 14.7778 8.22573 14.3973L19.0515 3.57075C19.4319 3.19031 20.0487 3.19031 20.4291 3.57075Z" fill="#1E212C"/>
<path fill-rule="evenodd" clip-rule="evenodd" d="M19.7419 3.29573C20.2792 3.29671 20.7142 3.73257 20.7142 4.26989L20.7142 10.0334C20.7142 10.5714 20.2781 11.0076 19.7401 11.0076C19.2022 11.0076 18.766 10.5715 18.766 10.0334L18.766 5.24227L13.9646 5.23347C13.4266 5.23249 12.9913 4.79555 12.9923 4.25753C12.9932 3.71952 13.4302 3.28417 13.9681 3.28516L19.7419 3.29573Z" fill="#1E212C"/>
</svg>
