<svg width="24" height="24" viewBox="0 0 24 24" fill="none" xmlns="http://www.w3.org/2000/svg">
<path d="M15.7004 23.0001C15.1004 23.0001 14.7004 22.6001 14.7004 22.0001V17.7001C14.7004 16.9001 14.7004 16.9001 14.4004 16.6001C14.1004 16.3001 14.0004 15.9001 14.2004 15.6001C14.3004 15.2001 14.7004 15.0001 15.0004 14.9001C17.8004 14.6001 20.4004 13.7001 20.4004 9.20008C20.4004 8.10008 20.0004 7.10008 19.2004 6.30008C18.9004 6.00008 18.8004 5.60008 19.0004 5.20008C19.2004 4.70008 19.3004 4.30008 19.3004 3.80008C19.3004 3.50008 19.3004 3.30008 19.2004 3.00008C18.7004 3.10008 17.8004 3.40008 16.5004 4.20008C16.3004 4.30008 16.0004 4.40008 15.7004 4.30008C13.5004 3.80008 11.3004 3.80008 9.10045 4.30008C8.80045 4.40008 8.60045 4.30008 8.30045 4.20008C6.80045 3.40008 5.90045 3.10008 5.40045 3.00008C5.40045 3.30008 5.30045 3.60008 5.30045 3.80008C5.30045 4.30008 5.40045 4.80008 5.60045 5.20008C5.70045 5.60008 5.60045 6.00008 5.40045 6.30008C5.00045 6.70008 4.70045 7.20008 4.50045 7.70008C4.30045 8.20008 4.20045 8.70008 4.20045 9.30008C4.20045 13.5001 6.40045 14.6001 9.60045 15.0001C10.0004 15.0001 10.3004 15.3001 10.4004 15.7001C10.5004 16.1001 10.4004 16.5001 10.2004 16.7001C9.90045 17.0001 9.90045 17.2001 9.90045 18.1001V19.8001V19.9001V22.1001C9.90045 22.7001 9.50045 23.1001 8.90045 23.1001C8.30045 23.1001 7.90045 22.7001 7.90045 22.1001V21.1001C4.90045 21.5001 3.70045 19.8001 2.80045 18.6001C2.40045 18.1001 2.10045 17.6001 1.80045 17.5001C1.30045 17.4001 0.900448 16.8001 1.10045 16.3001C1.30045 15.8001 1.80045 15.4001 2.30045 15.6001C3.30045 15.9001 3.90045 16.7001 4.50045 17.5001C5.30045 18.6001 6.00045 19.6001 7.90045 19.2001V18.3001C7.90045 17.9001 7.80045 17.4001 7.90045 16.8001C5.10045 16.2001 2.20045 14.6001 2.20045 9.40008C2.20045 8.60008 2.40045 7.80008 2.70045 7.10008C2.90045 6.60008 3.20045 6.00008 3.60045 5.60008C3.50045 5.10008 3.40045 4.60008 3.40045 4.00008C3.40045 3.20008 3.60045 2.50008 3.90045 1.80008C4.00045 1.30008 4.20045 1.10008 4.50045 1.10008C4.80045 1.00008 6.20045 0.800076 8.90045 2.40008C11.1004 1.90008 13.4004 1.90008 15.6004 2.40008C18.3004 0.800076 19.6004 1.00008 20.0004 1.10008C20.3004 1.20008 20.5004 1.40008 20.6004 1.60008C21.0004 2.30008 21.1004 3.00008 21.2004 3.80008C21.2004 4.30008 21.2004 4.90008 21.0004 5.40008C21.9004 6.50008 22.4004 7.80008 22.4004 9.20008C22.4004 14.5001 19.4004 16.1001 16.7004 16.7001C16.8004 17.0001 16.8004 17.4001 16.7004 17.7001V22.0001C16.7004 22.6001 16.2004 23.0001 15.7004 23.0001Z" fill="#1E212C"/>
</svg>
