<svg width="24" height="24" viewBox="0 0 24 24" fill="none" xmlns="http://www.w3.org/2000/svg">
<path fill-rule="evenodd" clip-rule="evenodd" d="M11.9989 19.9072C7.39982 17.2878 4.83476 14.6843 3.5944 12.4254C2.32488 10.1134 2.43565 8.16615 3.14011 6.7841C4.58808 3.94337 8.70568 3.03499 11.2144 6.20797L11.9988 7.20002L12.7833 6.20802C15.2925 3.03491 19.4103 3.94344 20.8582 6.7841C21.5627 8.16613 21.6734 10.1134 20.4038 12.4254C19.1633 14.6843 16.5981 17.2878 11.9989 19.9072ZM11.9989 4.10589C8.46971 0.752278 3.26332 2.13832 1.35823 5.87584C0.31269 7.92706 0.298408 10.5782 1.8413 13.388C3.3705 16.173 6.4194 19.1125 11.5151 21.929L11.9989 22.1964L12.4826 21.9291C17.5785 19.1126 20.6276 16.173 22.1569 13.3881C23.6999 10.5782 23.6856 7.92708 22.6401 5.87584C20.735 2.13825 15.5284 0.752328 11.9989 4.10589Z" fill="#1E212C"/>
</svg>
