<svg width="24" height="24" viewBox="0 0 24 24" fill="none" xmlns="http://www.w3.org/2000/svg">
<path fill-rule="evenodd" clip-rule="evenodd" d="M6.7591 2.50752C7.29257 2.65046 7.60915 3.1988 7.46621 3.73227L6.99298 5.49839L7.50028 5.2055C11.8049 2.72022 17.3092 4.19509 19.7945 8.49973C22.2798 12.8044 20.8049 18.3087 16.5003 20.794C12.1956 23.2792 6.69134 21.8044 4.20605 17.4997C3.92991 17.0214 4.09379 16.4098 4.57208 16.1337C5.05037 15.8576 5.66196 16.0214 5.93811 16.4997C7.8711 19.8478 12.1522 20.9949 15.5003 19.0619C18.8483 17.1289 19.9955 12.8478 18.0625 9.49973C16.1295 6.15168 11.8483 5.00455 8.50028 6.93755L7.99298 7.23044L9.7591 7.70367C10.2926 7.84662 10.6092 8.39495 10.4662 8.92842C10.3233 9.46188 9.77493 9.77847 9.24146 9.63553L5.14339 8.53745C4.60992 8.39451 4.29334 7.84617 4.43628 7.3127L5.53436 3.21463C5.6773 2.68116 6.22564 2.36458 6.7591 2.50752Z" fill="#1E212C"/>
</svg>
