<svg width="24" height="24" viewBox="0 0 24 24" fill="none" xmlns="http://www.w3.org/2000/svg">
<path fill-rule="evenodd" clip-rule="evenodd" d="M10.1692 2.20161C10.864 0.599464 13.136 0.599462 13.8308 2.20161L15.9324 7.04812L21.1911 7.54921C22.9296 7.71487 23.6317 9.87574 22.3226 11.0316L18.3627 14.528L19.5112 19.6842C19.8909 21.3887 18.0527 22.7242 16.5489 21.8364L12 19.1508L7.45106 21.8364C5.94728 22.7242 4.10913 21.3887 4.48879 19.6842L5.63725 14.528L1.67739 11.0316C0.368342 9.87574 1.07045 7.71487 2.80887 7.54921L8.06761 7.04812L10.1692 2.20161ZM14.1016 7.84201L12 2.9955L9.89839 7.84201C9.60924 8.50881 8.98042 8.96568 8.2569 9.03462L2.99816 9.53572L6.95803 13.0321C7.50285 13.5132 7.74303 14.2524 7.58502 14.9618L6.43656 20.118L10.9855 17.4324C11.6114 17.0629 12.3886 17.0629 13.0145 17.4324L17.5634 20.118L16.415 14.9618C16.257 14.2524 16.4972 13.5132 17.042 13.0321L21.0018 9.53572L15.7431 9.03462C15.0196 8.96568 14.3908 8.50881 14.1016 7.84201Z" fill="#1E212C"/>
</svg>
